 http://img801.imageshack.us/img801/9799/itravelalone2011bdripxv.jpg

Country.......: Norway
Genre.........: Drama, Comedy
Date release..: 11.02.2011 [World]
Director......: Stian Kristiansen
Writers.......: Tore Renberg
Duration......: 90 min.
More..........: http://www.imdb.com/title/tt1657512
Trailer.......:

Pilot :
The film is a continuation of the fate of Jarle Klepp. Jarle is 25 years old and studying literature. His interests are limited to books, Adorno and Proust, and ... for mature women. In the world of the student has no place on Tamagotchi toys, romance Lady Diana and the problems of small children. Meanwhile, everything is upside down, when it turns out that Jarle is the father of a little girl.

Cats :
Ingrid Bolso Berdal   	 ...  	Herdis Snartemo
Gustaf Hammarsten 	... 	Robert Goteborg
Rolf Kristian Larsen 	... 	Jarle Klepp
Loekke Calle 	... 	Buss passasjer
Amina Eleonora Bergrem 	... 	Lotte
Henriette Steenstrup 	... 	Grete
Marte Aarseth 	... 	Anette Hansen
Emilie Houge 	... 	Anette Hansen (archive footage)
Ina Therese Lerner Grevstad 	... 	Flyvertinne 

Data Technical :
!!! SAMPLE !!!
Audio.....: Norwegian
Subtitles.: English .srt
Format                           : AVI
Format/Info                      : Audio Video Interleave
File size                        : 700 MiB
Duration                         : 1h 30mn
Overall bit rate                 : 1 086 Kbps
Writing application              : VirtualDubMod 1.5.10.2 (build 2540/release)
Writing library                  : VirtualDubMod build 2540/release
Video
ID                               : 0
Format                           : MPEG-4 Visual
Format profile                   : Advanced Simple@L5
Format settings, BVOP            : Yes
Format settings, QPel            : No
Format settings, GMC             : No warppoints
Format settings, Matrix          : Default (H.263)
Codec ID                         : XVID
Codec ID/Hint                    : XviD
Duration                         : 1h 30mn
Bit rate                         : 964 Kbps
Width                            : 640 pixels
Height                           : 272 pixels
Display aspect ratio             : 2.35:1
Frame rate                       : 25.000 fps
Color space                      : YUV
Chroma subsampling               : 4:2:0
Bit depth                        : 8 bits
Scan type                        : Progressive
Bits/(Pixel*Frame)               : 0.222
Stream size                      : 622 MiB (89%)
Writing library                  : XviD 1.2.1 (UTC 2008-12-04)
Audio
ID                               : 1
Format                           : MPEG Audio
Format version                   : Version 1
Format profile                   : Layer 3
Mode                             : Joint stereo
Mode extension                   : MS Stereo
Codec ID                         : 55
Codec ID/Hint                    : MP3
Duration                         : 1h 30mn
Bit rate mode                    : Variable
Bit rate                         : 109 Kbps
Minimum bit rate                 : 32.0 Kbps
Channel(s)                       : 2 channels
Sampling rate                    : 48.0 KHz
Stream size                      : 70.1 MiB (10%)
Alignment                        : Aligned on interleaves
Interleave, duration             : 24 ms (0.60 video frame)
Interleave, preload duration     : 169 ms
Writing library                  : LAME3.98r
Encoding settings                : -m j -V 5 -q 2 -lowpass 16.5 --vbr-new -b 32

Screen : 
http://img339.imageshack.us/img339/5120/itravelalone2011s1.jpg 
http://img269.imageshack.us/img269/7286/itravelalone2011s2.jpg 
http://img121.imageshack.us/img121/7745/itravelalone2011s3.jpg 
http://img69.imageshack.us/img69/6329/itravelalone2011s4.jpg 
http://img215.imageshack.us/img215/24/itravelalone2011s5.jpg